<svg xmlns="http://www.w3.org/2000/svg" viewBox="0 0 40 26.52"><defs><style>.cls-1{fill:#040000;}</style></defs><g id="レイヤー_2" data-name="レイヤー 2"><g id="レイヤー_1-2" data-name="レイヤー 1"><g id="solid"><path class="cls-1" d="M38.07,19.36,38.63,16l-2,2.3v3.86l.67,2a.68.68,0,0,1,0,.54l-.9,1.8h1.25L39.4,23l-1.29-3.23A.68.68,0,0,1,38.07,19.36Z"/><path class="cls-1" d="M40,2.82A2.82,2.82,0,0,0,37.18,0H35.07a.71.71,0,0,0-.71.7.71.71,0,0,0,.71.71h2.11a1.41,1.41,0,1,1,0,2.82h-.7l-.16,0A4.63,4.63,0,0,0,34.71,4H13.39a.71.71,0,0,1-.55-.26L12.25,3A6.72,6.72,0,0,0,7.39.45L9.2,5a1.75,1.75,0,0,0,1.63,1.11h1.86a.7.7,0,0,1,.7.7.7.7,0,0,1-.7.71H10.83a3.16,3.16,0,0,1-2.94-2l-.28-.69a6.12,6.12,0,0,0-2,1.9L5.44,7a12,12,0,0,1-1.5,1.83l0,0A11.73,11.73,0,0,1,.79,11.05l-.79.4v3.42l.93.61a17.18,17.18,0,0,0,6.25,2.59.75.75,0,0,1,.37.2l2.11,2.11a.73.73,0,0,1,.2.39l.7,4.22a.77.77,0,0,1,0,.34l-.4,1.19h2l.54-1.63,0-.1.63-1.26V21.59a.72.72,0,0,1,.12-.4l1.41-2.11a.7.7,0,0,1,.9-.24l.14.07a17.37,17.37,0,0,0,13,1,7.81,7.81,0,0,1-2.17-5.37.71.71,0,0,1,.71-.71.7.7,0,0,1,.7.71,6.41,6.41,0,0,0,2.47,5l0,0A.7.7,0,0,1,31,20l.71,2.81a1,1,0,0,1,0,.29l-.57,3.41h1.58l2.52-4.42v-4a.71.71,0,0,1,.17-.46L37.6,15a7.7,7.7,0,0,0,1.87-5V8.72a4.72,4.72,0,0,0-1.3-3.26A2.83,2.83,0,0,0,40,2.82ZM6,11a1.06,1.06,0,1,1,1.06-1A1.06,1.06,0,0,1,6,11Z"/></g></g></g></svg>