<svg xmlns="http://www.w3.org/2000/svg" viewBox="0 0 83.12 75.94"><defs><style>.cls-1{fill:#231815;}</style></defs><g id="レイヤー_2" data-name="レイヤー 2"><g id="レイヤー_1-2" data-name="レイヤー 1"><path class="cls-1" d="M83.12,47.72c0-5.66-2.48-11.13-7.17-15.81h0a8.21,8.21,0,0,1-2.45-5.8A18.36,18.36,0,0,0,71.58,18a11.63,11.63,0,0,1-7.37,2.15,27.57,27.57,0,0,1-11-2.55c-5.68-2.54-9.89-6.29-11.67-10-1.78,3.7-6,7.45-11.68,10a27.85,27.85,0,0,1-11,2.56c-.37,0-.74,0-1.11,0A10.66,10.66,0,0,1,11.53,18a18.41,18.41,0,0,0-1.91,8.1,8.07,8.07,0,0,1-2.43,5.78C2.49,36.58,0,42.05,0,47.72A21.43,21.43,0,0,0,5,61.18a36.46,36.46,0,0,1-.35-5.11c0-20.61,16.54-37.37,36.87-37.37S78.43,35.46,78.43,56.07a38.15,38.15,0,0,1-.35,5.11A21.43,21.43,0,0,0,83.12,47.72Z"/><path class="cls-1" d="M12.5,14.52a2.9,2.9,0,0,0,.58.83,7.2,7.2,0,0,0,4.86,1.77,23.88,23.88,0,0,0,10.72-2.27c7.88-3.51,11.9-9.27,10.58-12.24a1.32,1.32,0,0,0-.16-.25A3.76,3.76,0,0,0,37.54,1,9.83,9.83,0,0,0,33.41,0l-.6,0a24.47,24.47,0,0,0-9.74,2.29,23.69,23.69,0,0,0-8.86,6.44,11.31,11.31,0,0,0-1.33,2.09,5.08,5.08,0,0,0-.58,3A2.59,2.59,0,0,0,12.5,14.52Z"/><path class="cls-1" d="M54.45,14.85c7.09,3.15,13.42,2.76,15.59.5a3,3,0,0,0,.58-.83,3.71,3.71,0,0,0,.2-.67,5.25,5.25,0,0,0-.64-3.1c-1.4-2.83-4.91-6.14-10.13-8.46A23.83,23.83,0,0,0,49.68,0a9.53,9.53,0,0,0-4.1,1A3.79,3.79,0,0,0,44,2.36a2.07,2.07,0,0,0-.15.25C42.56,5.58,46.57,11.34,54.45,14.85Z"/><circle class="cls-1" cx="26.87" cy="37.42" r="5.68"/><circle class="cls-1" cx="56.25" cy="37.42" r="5.68"/><path class="cls-1" d="M64.79,35.92H69a33.55,33.55,0,0,0-54.84,0h4.19a8.67,8.67,0,0,1,17.21,1.5c0,.33,0,.65,0,1a9.64,9.64,0,0,1,12.14,0c0-.32-.06-.64-.06-1a8.67,8.67,0,0,1,17.22-1.5Z"/><path class="cls-1" d="M64.79,38.92a8.65,8.65,0,0,1-13.7,5.46,10.74,10.74,0,0,1,.13,1.52,5.88,5.88,0,0,1-1.58,4.36A9.54,9.54,0,0,0,55,52a9.89,9.89,0,0,0,7.73-3.87,1.5,1.5,0,0,1,2.64,1.25c-1.45,6.6-5.61,11-10.37,11-4,0-7.63-3.18-9.52-8.15a20.58,20.58,0,0,1-4,.34,20.68,20.68,0,0,1-4-.34c-1.89,5-5.48,8.15-9.51,8.15-4.76,0-8.93-4.43-10.37-11a1.5,1.5,0,0,1,2.64-1.25A9.89,9.89,0,0,0,28.08,52a9.49,9.49,0,0,0,5.39-1.7A5.92,5.92,0,0,1,31.9,45.9,9.44,9.44,0,0,1,32,44.38a8.65,8.65,0,0,1-13.7-5.46H12.22A34.5,34.5,0,0,0,7.69,56.07a35,35,0,0,0,1.19,9,38.66,38.66,0,0,0,6.55,4.54l.46.24c.38.21.77.41,1.16.6l.9.44.74.34c.39.18.79.35,1.18.51l.44.18A51.5,51.5,0,0,0,29,74.61l.36.08c.5.11,1,.2,1.5.29l.65.12,1.36.21.87.12,1.22.15,1.08.1,1.08.1,1.37.07.85.05c.75,0,1.5,0,2.26,0s1.51,0,2.26,0l.85-.05c.46,0,.92,0,1.37-.08s.72-.06,1.07-.09l1.09-.1,1.22-.15.87-.12,1.35-.21L52.3,75c.5-.09,1-.18,1.49-.29l.37-.08A51.39,51.39,0,0,0,62.8,72l.45-.18q.59-.24,1.17-.51l.75-.34.89-.43,1.17-.61.45-.24a38.35,38.35,0,0,0,6.56-4.54,35.07,35.07,0,0,0,1.19-9A34.5,34.5,0,0,0,70.9,38.92Z"/><ellipse class="cls-1" cx="37.49" cy="44.4" rx="2.3" ry="3.63"/><ellipse class="cls-1" cx="45.63" cy="44.4" rx="2.3" ry="3.63"/></g></g></svg>