<svg xmlns="http://www.w3.org/2000/svg" viewBox="0 0 31.46 40"><defs><style>.cls-1{fill:#040000;}</style></defs><g id="レイヤー_2" data-name="レイヤー 2"><g id="レイヤー_1-2" data-name="レイヤー 1"><path class="cls-1" d="M25.22,35.49v2.37A2.14,2.14,0,0,1,23.07,40H2.14A2.14,2.14,0,0,1,0,37.86V8.69A2.14,2.14,0,0,1,2.14,6.55H4.2V31.77a3.73,3.73,0,0,0,3.72,3.72ZM31.46,1.68V31.77a1.69,1.69,0,0,1-1.69,1.68H7.92a1.68,1.68,0,0,1-1.68-1.68V1.68A1.68,1.68,0,0,1,7.92,0H29.77A1.69,1.69,0,0,1,31.46,1.68ZM27.19,24.15l-5.36-5.36A6.29,6.29,0,1,0,17,21.07a6.21,6.21,0,0,0,3.31-.94l5.46,5.46a1,1,0,0,0,1.44-1.44Zm-6-9.37A4.26,4.26,0,1,0,17,19,4.26,4.26,0,0,0,21.24,14.78Z"/></g></g></svg>