<svg xmlns="http://www.w3.org/2000/svg" viewBox="0 0 32.49 40"><defs><style>.cls-1{fill:#040001;}</style></defs><g id="レイヤー_2" data-name="レイヤー 2"><g id="レイヤー_1-2" data-name="レイヤー 1"><path class="cls-1" d="M6.82,4c1.84-1.09,5.46-2.66,9.31-1,5.27,2.19,7.15,6.53,15.14.79.69-.5,1.22-.24,1.22.61v15a3.87,3.87,0,0,1-1.1,2.59c-1.39,1.2-3.94,3-6.66,2.9-4.09-.12-8-4.47-11.76-4.47a12.88,12.88,0,0,0-6.13,2c-.72.43-1.28.15-1.28-.69V6.39A3.09,3.09,0,0,1,6.82,4Z"/><path class="cls-1" d="M2.24,0A2.24,2.24,0,0,0,0,2.24a2.18,2.18,0,0,0,.19.89A6.5,6.5,0,0,1,.71,5.4V38.47a1.53,1.53,0,0,0,3.06,0V5.4A6.27,6.27,0,0,1,4.3,3.13a2.18,2.18,0,0,0,.18-.89A2.24,2.24,0,0,0,2.24,0Z"/></g></g></svg>